# xmcd
#
# Track frame offsets:
#	150
#	14558
#	29697
#	44782
#	59263
#	79608
#	96766
#	112267
#	132581
#	147688
#	161061
#	177031
#
# Disc length: 2557 seconds
#
# Revision: 0
# Processed by: cddbd v1.4PL0 Copyright (c) Steve Scherf et al.
# Submitted via: dBpowerAMP V4.0
#
DISCID=b509fb0c
DTITLE=DarrelCole&newCountryRevolution - RednecksOnParade
DYEAR=1900
DGENRE=
TTITLE0=Tail-Gate_Party
TTITLE1=High_Noon
TTITLE2=Dust_Off_My_Boots
TTITLE3=Honky_Tonk_Boogieman
TTITLE4=More_Than_I_Can_Say
TTITLE5=Rednecks_On_Parade
TTITLE6=Suspense
TTITLE7=Shame_On_Me
TTITLE8=How_Long_Is_Forever
TTITLE9=Tearin'_Up_Jack
TTITLE10=You
TTITLE11=Git_It_While_The_Gittins'_Good
EXTD=
EXTT0=
EXTT1=
EXTT2=
EXTT3=
EXTT4=
EXTT5=
EXTT6=
EXTT7=
EXTT8=
EXTT9=
EXTT10=
EXTT11=
PLAYORDER=
